<svg xmlns="http://www.w3.org/2000/svg" xmlns:xlink="http://www.w3.org/1999/xlink" zoomAndPan="magnify" preserveAspectRatio="xMidYMid meet" version="1.0" viewBox="117.62 275.6 117 7.5"><defs><clipPath id="459768884c"><path d="M 117.617188 275.597656 L 234.617188 275.597656 L 234.617188 283.097656 L 117.617188 283.097656 Z M 117.617188 275.597656 " clip-rule="nonzero"/></clipPath></defs><g clip-path="url(#459768884c)"><path fill="#d4a159" d="M 190.300781 279.542969 C 189.167969 280.210938 187.917969 280.800781 186.617188 281.042969 C 185.796875 281.195312 184.957031 281.203125 184.113281 280.953125 C 183.722656 280.847656 183.382812 280.679688 183.054688 280.488281 C 182.53125 280.183594 182.046875 279.808594 181.550781 279.417969 C 181.21875 279.171875 180.804688 278.929688 180.40625 278.902344 C 180.082031 278.882812 179.757812 278.964844 179.46875 279.257812 C 179.207031 279.53125 179.054688 279.902344 179.023438 280.324219 C 178.992188 280.808594 179.105469 281.351562 179.339844 281.824219 C 179.773438 282.703125 180.578125 283.332031 181.441406 282.953125 C 181.933594 282.734375 182.082031 282.203125 181.957031 281.730469 C 181.828125 281.261719 181.453125 280.871094 180.972656 281.03125 C 180.945312 281.035156 180.929688 281.066406 180.9375 281.089844 C 180.945312 281.117188 180.972656 281.132812 181 281.128906 C 181.398438 281.042969 181.660156 281.390625 181.722656 281.78125 C 181.773438 282.117188 181.667969 282.496094 181.3125 282.609375 C 180.652344 282.824219 180.140625 282.261719 179.882812 281.585938 C 179.636719 280.957031 179.597656 280.191406 180.015625 279.824219 C 180.144531 279.707031 180.285156 279.710938 180.421875 279.75 C 180.632812 279.816406 180.828125 279.972656 180.996094 280.113281 C 181.523438 280.542969 182.027344 280.96875 182.597656 281.289062 C 183 281.511719 183.429688 281.683594 183.902344 281.792969 C 184.890625 281.996094 185.851562 281.929688 186.765625 281.65625 C 188.078125 281.257812 189.273438 280.449219 190.347656 279.605469 C 190.363281 279.59375 190.371094 279.570312 190.355469 279.554688 C 190.34375 279.535156 190.320312 279.53125 190.300781 279.542969 Z M 161.6875 279.605469 C 162.757812 280.449219 163.957031 281.257812 165.269531 281.65625 C 166.183594 281.929688 167.144531 281.996094 168.132812 281.792969 C 168.605469 281.683594 169.035156 281.511719 169.433594 281.289062 C 170.003906 280.96875 170.511719 280.542969 171.039062 280.113281 C 171.207031 279.972656 171.402344 279.816406 171.613281 279.75 C 171.746094 279.710938 171.890625 279.707031 172.019531 279.824219 C 172.433594 280.191406 172.394531 280.957031 172.152344 281.585938 C 171.890625 282.261719 171.382812 282.824219 170.722656 282.609375 C 170.363281 282.496094 170.261719 282.117188 170.3125 281.78125 C 170.371094 281.390625 170.636719 281.042969 171.035156 281.128906 C 171.058594 281.132812 171.089844 281.117188 171.09375 281.089844 C 171.101562 281.066406 171.085938 281.035156 171.058594 281.03125 C 170.582031 280.871094 170.203125 281.261719 170.078125 281.730469 C 169.953125 282.203125 170.097656 282.734375 170.589844 282.953125 C 171.457031 283.332031 172.261719 282.703125 172.695312 281.824219 C 172.929688 281.351562 173.042969 280.808594 173.007812 280.324219 C 172.980469 279.902344 172.824219 279.53125 172.5625 279.257812 C 172.277344 278.964844 171.953125 278.882812 171.628906 278.902344 C 171.226562 278.929688 170.816406 279.171875 170.484375 279.417969 C 169.988281 279.808594 169.503906 280.183594 168.976562 280.488281 C 168.652344 280.679688 168.308594 280.847656 167.921875 280.953125 C 167.074219 281.203125 166.238281 281.195312 165.417969 281.042969 C 164.117188 280.800781 162.867188 280.210938 161.730469 279.542969 C 161.714844 279.53125 161.6875 279.535156 161.675781 279.554688 C 161.664062 279.570312 161.667969 279.59375 161.6875 279.605469 Z M 148.828125 279.375 L 117.878906 279.808594 L 148.863281 280.167969 C 148.863281 280.175781 148.863281 280.179688 148.867188 280.183594 C 148.996094 280.59375 149.261719 280.925781 149.59375 281.183594 C 149.914062 281.433594 150.300781 281.601562 150.679688 281.699219 C 151.550781 281.914062 152.367188 281.800781 153.148438 281.5 C 153.972656 281.183594 154.753906 280.664062 155.527344 280.152344 C 156.253906 279.667969 156.964844 279.179688 157.730469 278.945312 C 158.121094 278.824219 158.625 278.800781 159.058594 278.933594 C 159.460938 279.054688 159.8125 279.296875 159.917969 279.738281 C 160.003906 280.089844 159.910156 280.433594 159.722656 280.726562 C 159.515625 281.039062 159.207031 281.300781 158.875 281.449219 C 158.679688 281.535156 158.453125 281.605469 158.242188 281.597656 C 158.050781 281.585938 157.871094 281.515625 157.753906 281.324219 C 157.574219 281.019531 157.691406 280.496094 157.941406 280.214844 C 158.117188 280.015625 158.363281 279.941406 158.636719 280.152344 C 158.65625 280.171875 158.6875 280.167969 158.707031 280.148438 C 158.722656 280.128906 158.722656 280.09375 158.699219 280.078125 C 158.378906 279.777344 158.054688 279.855469 157.8125 280.089844 C 157.46875 280.414062 157.304688 281.066406 157.5 281.460938 C 157.621094 281.710938 157.816406 281.84375 158.039062 281.910156 C 158.347656 282.003906 158.714844 281.941406 159.027344 281.832031 C 159.453125 281.679688 159.855469 281.390625 160.140625 281.019531 C 160.441406 280.621094 160.59375 280.132812 160.507812 279.617188 C 160.410156 279.058594 160.066406 278.667969 159.621094 278.414062 C 159.542969 278.371094 159.460938 278.332031 159.375 278.296875 C 159.742188 278.214844 160.121094 278.171875 160.519531 278.195312 C 161.027344 278.210938 161.488281 278.347656 161.9375 278.523438 C 162.5 278.746094 163.035156 279.042969 163.578125 279.320312 C 164.164062 279.617188 164.765625 279.890625 165.398438 280.058594 C 166.050781 280.226562 166.722656 280.308594 167.335938 280.164062 C 167.582031 280.105469 167.820312 280.011719 168.046875 279.875 C 168.949219 279.722656 169.824219 279.328125 170.640625 278.761719 C 171.148438 278.394531 171.628906 277.96875 172.121094 277.578125 C 172.429688 277.332031 172.742188 277.105469 173.078125 276.929688 C 173.578125 276.664062 174.128906 276.511719 174.800781 276.640625 C 175.367188 276.742188 175.621094 277.304688 175.660156 277.890625 L 175.664062 278.023438 C 175.667969 278.703125 175.394531 279.421875 174.785156 279.625 C 174.695312 279.652344 174.601562 279.671875 174.507812 279.675781 C 174.410156 279.679688 174.3125 279.671875 174.214844 279.652344 C 174.125 279.628906 174.035156 279.601562 173.949219 279.5625 C 173.867188 279.527344 173.789062 279.480469 173.722656 279.421875 C 173.355469 279.109375 173.433594 278.671875 173.652344 278.390625 C 173.910156 278.050781 174.375 277.925781 174.613281 278.441406 C 174.621094 278.46875 174.652344 278.480469 174.675781 278.46875 C 174.703125 278.460938 174.714844 278.429688 174.707031 278.40625 C 174.46875 277.703125 173.84375 277.824219 173.464844 278.226562 C 173.113281 278.597656 172.988281 279.207031 173.460938 279.699219 C 173.546875 279.792969 173.652344 279.867188 173.761719 279.929688 C 173.867188 279.992188 173.980469 280.039062 174.097656 280.078125 C 174.230469 280.125 174.363281 280.144531 174.503906 280.152344 C 174.644531 280.164062 174.785156 280.148438 174.925781 280.117188 C 175.398438 280.003906 175.769531 279.675781 176.015625 279.242188 C 176.265625 279.675781 176.632812 280.003906 177.109375 280.117188 C 177.25 280.148438 177.390625 280.164062 177.53125 280.152344 C 177.667969 280.144531 177.804688 280.125 177.9375 280.078125 C 178.050781 280.039062 178.167969 279.992188 178.273438 279.929688 C 178.382812 279.867188 178.484375 279.792969 178.574219 279.699219 C 179.046875 279.207031 178.917969 278.597656 178.570312 278.226562 C 178.1875 277.824219 177.566406 277.703125 177.328125 278.40625 C 177.316406 278.429688 177.328125 278.460938 177.355469 278.46875 C 177.382812 278.480469 177.410156 278.46875 177.421875 278.441406 C 177.660156 277.925781 178.121094 278.050781 178.382812 278.390625 C 178.601562 278.671875 178.675781 279.109375 178.3125 279.421875 C 178.242188 279.480469 178.164062 279.527344 178.082031 279.5625 C 177.996094 279.601562 177.90625 279.628906 177.816406 279.652344 C 177.722656 279.671875 177.621094 279.679688 177.523438 279.675781 C 177.429688 279.671875 177.339844 279.652344 177.246094 279.625 C 176.636719 279.421875 176.367188 278.703125 176.371094 278.023438 L 176.375 277.890625 C 176.410156 277.304688 176.667969 276.742188 177.234375 276.640625 C 177.90625 276.511719 178.453125 276.664062 178.957031 276.929688 C 179.289062 277.105469 179.605469 277.332031 179.914062 277.578125 C 180.40625 277.96875 180.886719 278.394531 181.390625 278.761719 C 182.207031 279.328125 183.085938 279.722656 183.988281 279.875 C 184.214844 280.011719 184.453125 280.105469 184.699219 280.164062 C 185.3125 280.308594 185.984375 280.226562 186.632812 280.058594 C 187.269531 279.890625 187.867188 279.617188 188.453125 279.320312 C 189 279.042969 189.535156 278.746094 190.097656 278.523438 C 190.542969 278.347656 191.007812 278.210938 191.515625 278.195312 C 191.910156 278.171875 192.289062 278.214844 192.65625 278.296875 C 192.574219 278.332031 192.492188 278.371094 192.414062 278.414062 C 191.964844 278.667969 191.621094 279.058594 191.527344 279.617188 C 191.441406 280.132812 191.589844 280.621094 191.894531 281.019531 C 192.175781 281.390625 192.582031 281.679688 193.007812 281.832031 C 193.316406 281.941406 193.6875 282.003906 193.996094 281.910156 C 194.214844 281.84375 194.410156 281.710938 194.535156 281.460938 C 194.730469 281.066406 194.566406 280.414062 194.222656 280.089844 C 193.976562 279.855469 193.652344 279.777344 193.332031 280.078125 C 193.3125 280.09375 193.308594 280.128906 193.328125 280.148438 C 193.34375 280.167969 193.378906 280.171875 193.398438 280.152344 C 193.667969 279.941406 193.917969 280.015625 194.09375 280.214844 C 194.34375 280.496094 194.460938 281.019531 194.277344 281.324219 C 194.160156 281.515625 193.984375 281.585938 193.792969 281.597656 C 193.578125 281.605469 193.351562 281.535156 193.160156 281.449219 C 192.824219 281.300781 192.515625 281.039062 192.3125 280.726562 C 192.125 280.433594 192.03125 280.089844 192.117188 279.738281 C 192.222656 279.296875 192.574219 279.054688 192.976562 278.933594 C 193.410156 278.800781 193.914062 278.824219 194.304688 278.945312 C 195.066406 279.179688 195.777344 279.667969 196.507812 280.152344 C 197.277344 280.664062 198.0625 281.183594 198.882812 281.5 C 199.667969 281.800781 200.484375 281.914062 201.351562 281.699219 C 201.734375 281.601562 202.121094 281.433594 202.4375 281.183594 C 202.769531 280.925781 203.039062 280.59375 203.167969 280.183594 C 203.167969 280.179688 203.171875 280.171875 203.171875 280.167969 L 234.109375 279.808594 L 203.203125 279.375 C 203.171875 279.207031 203.121094 279.039062 203.042969 278.882812 C 202.832031 278.457031 202.480469 278.125 202.019531 278.089844 C 201.726562 278.0625 201.40625 278.171875 201.191406 278.378906 C 200.976562 278.585938 200.851562 278.878906 200.96875 279.203125 C 201.035156 279.382812 201.152344 279.527344 201.304688 279.640625 C 201.515625 279.800781 201.789062 279.894531 202.027344 279.925781 C 202.050781 279.929688 202.070312 279.914062 202.074219 279.894531 C 202.078125 279.871094 202.0625 279.851562 202.042969 279.847656 C 201.863281 279.800781 201.664062 279.714844 201.5 279.589844 C 201.347656 279.472656 201.226562 279.324219 201.183594 279.140625 C 201.132812 278.917969 201.238281 278.734375 201.394531 278.613281 C 201.554688 278.492188 201.773438 278.4375 201.96875 278.472656 C 202.273438 278.53125 202.46875 278.789062 202.582031 279.082031 C 202.691406 279.375 202.699219 279.714844 202.589844 279.972656 C 202.480469 280.246094 202.269531 280.457031 202.03125 280.613281 C 201.777344 280.785156 201.480469 280.886719 201.1875 280.941406 C 200.480469 281.078125 199.835938 280.925781 199.214844 280.667969 C 198.457031 280.351562 197.734375 279.855469 197.003906 279.386719 C 196.195312 278.871094 195.375 278.398438 194.523438 278.175781 C 194.355469 278.132812 194.171875 278.105469 193.980469 278.09375 C 193.855469 278.027344 193.730469 277.964844 193.601562 277.902344 C 192.953125 277.597656 192.261719 277.402344 191.507812 277.378906 C 190.894531 277.367188 190.324219 277.484375 189.78125 277.679688 C 189.175781 277.894531 188.605469 278.199219 188.03125 278.503906 C 187.5 278.785156 186.972656 279.074219 186.402344 279.25 C 185.96875 279.386719 185.523438 279.492188 185.09375 279.46875 C 184.691406 279.453125 184.304688 279.335938 183.964844 279.03125 C 183.527344 278.652344 183.46875 278.042969 183.660156 277.582031 C 183.867188 277.09375 184.351562 276.765625 185 277.003906 C 185.347656 277.132812 185.648438 277.523438 185.644531 277.855469 C 185.644531 278.078125 185.5 278.269531 185.15625 278.34375 C 185.128906 278.347656 185.109375 278.371094 185.113281 278.402344 C 185.117188 278.429688 185.144531 278.445312 185.171875 278.441406 C 185.617188 278.394531 185.800781 278.148438 185.832031 277.867188 C 185.878906 277.449219 185.542969 276.921875 185.117188 276.71875 C 184.257812 276.3125 183.5625 276.730469 183.222656 277.375 C 182.964844 277.859375 182.933594 278.484375 183.183594 279.019531 C 182.726562 278.789062 182.285156 278.496094 181.871094 278.140625 C 181.394531 277.75 180.957031 277.289062 180.488281 276.886719 C 180.140625 276.585938 179.777344 276.3125 179.386719 276.109375 C 178.710938 275.757812 177.953125 275.597656 177.058594 275.800781 C 176.601562 275.914062 176.253906 276.1875 176.015625 276.554688 C 175.78125 276.1875 175.429688 275.914062 174.972656 275.800781 C 174.078125 275.597656 173.324219 275.757812 172.648438 276.109375 C 172.257812 276.3125 171.894531 276.585938 171.546875 276.886719 C 171.078125 277.289062 170.636719 277.75 170.160156 278.140625 C 169.75 278.496094 169.308594 278.789062 168.847656 279.019531 C 169.097656 278.484375 169.066406 277.859375 168.8125 277.375 C 168.472656 276.730469 167.773438 276.3125 166.914062 276.71875 C 166.492188 276.921875 166.15625 277.449219 166.199219 277.867188 C 166.230469 278.148438 166.417969 278.394531 166.859375 278.441406 C 166.886719 278.445312 166.914062 278.429688 166.917969 278.402344 C 166.921875 278.371094 166.90625 278.347656 166.878906 278.34375 C 166.53125 278.269531 166.390625 278.078125 166.386719 277.855469 C 166.382812 277.523438 166.683594 277.132812 167.035156 277.003906 C 167.683594 276.765625 168.167969 277.09375 168.371094 277.582031 C 168.566406 278.042969 168.503906 278.652344 168.070312 279.03125 C 167.730469 279.335938 167.339844 279.453125 166.941406 279.46875 C 166.511719 279.492188 166.066406 279.386719 165.632812 279.25 C 165.058594 279.074219 164.53125 278.785156 164.003906 278.503906 C 163.429688 278.199219 162.855469 277.894531 162.253906 277.679688 C 161.707031 277.484375 161.136719 277.367188 160.527344 277.378906 C 159.769531 277.402344 159.082031 277.597656 158.429688 277.902344 C 158.300781 277.964844 158.175781 278.027344 158.050781 278.09375 C 157.863281 278.105469 157.679688 278.132812 157.507812 278.175781 C 156.660156 278.398438 155.839844 278.871094 155.027344 279.386719 C 154.300781 279.855469 153.578125 280.351562 152.816406 280.667969 C 152.195312 280.925781 151.550781 281.078125 150.84375 280.941406 C 150.554688 280.886719 150.257812 280.785156 150.003906 280.613281 C 149.761719 280.457031 149.554688 280.246094 149.441406 279.972656 C 149.335938 279.714844 149.34375 279.375 149.453125 279.082031 C 149.5625 278.789062 149.761719 278.53125 150.066406 278.472656 C 150.257812 278.4375 150.476562 278.492188 150.636719 278.613281 C 150.796875 278.734375 150.898438 278.917969 150.847656 279.140625 C 150.804688 279.324219 150.683594 279.472656 150.53125 279.589844 C 150.367188 279.714844 150.171875 279.800781 149.992188 279.847656 C 149.96875 279.851562 149.957031 279.871094 149.960938 279.894531 C 149.964844 279.914062 149.984375 279.929688 150.003906 279.925781 C 150.246094 279.894531 150.515625 279.800781 150.730469 279.640625 C 150.882812 279.527344 151 279.382812 151.0625 279.203125 C 151.179688 278.878906 151.058594 278.585938 150.839844 278.378906 C 150.625 278.171875 150.304688 278.0625 150.011719 278.089844 C 149.550781 278.125 149.199219 278.457031 148.992188 278.882812 C 148.914062 279.039062 148.859375 279.207031 148.828125 279.375 Z M 148.828125 279.375 " fill-opacity="1" fill-rule="evenodd"/></g></svg>