<svg xmlns="http://www.w3.org/2000/svg" xmlns:xlink="http://www.w3.org/1999/xlink" zoomAndPan="magnify" preserveAspectRatio="xMidYMid meet" version="1.0" viewBox="125.31 84.79 101.49 34.61"><defs><clipPath id="adb5469697"><path d="M 146 84.792969 L 184 84.792969 L 184 119 L 146 119 Z M 146 84.792969 " clip-rule="nonzero"/></clipPath><clipPath id="7d663b111d"><path d="M 185 84.792969 L 189 84.792969 L 189 111 L 185 111 Z M 185 84.792969 " clip-rule="nonzero"/></clipPath></defs><path fill="#ffffff" d="M 223.695312 109.738281 C 223.65625 109.75 222.871094 109.855469 220.6875 109.515625 C 219.886719 109.390625 219.3125 109.007812 219.046875 108.445312 C 218.746094 107.804688 218.707031 106.4375 219.097656 105.671875 C 219.90625 104.085938 224.003906 103.085938 225.835938 105.550781 C 226.328125 106.214844 226.621094 107.136719 226.621094 108 C 226.621094 109.046875 226.386719 110.910156 226.210938 111.796875 C 224.996094 117.835938 217.609375 120.371094 214.527344 119.066406 C 212.066406 118.023438 211.585938 115.152344 211.785156 114.523438 C 211.988281 113.898438 212.183594 116.726562 214.789062 117.207031 C 218.734375 117.941406 223.082031 114.433594 223.578125 111.066406 C 223.644531 110.609375 223.734375 110.199219 223.695312 109.738281 Z M 222.839844 107.625 C 222.734375 107.476562 222.097656 106.386719 221.289062 106.480469 C 220.878906 106.527344 220.863281 107.121094 221.125 107.34375 C 221.425781 107.59375 223.261719 108.210938 222.839844 107.625 Z M 222.839844 107.625 " fill-opacity="1" fill-rule="evenodd"/><path fill="#ffffff" d="M 214.226562 105.082031 C 213.011719 104.546875 212.527344 103.355469 211.886719 103.851562 C 211.273438 104.328125 210.027344 105.609375 209.996094 106.273438 C 209.941406 107.28125 213.824219 106.484375 214.855469 108.613281 C 215.609375 110.175781 215.285156 112.355469 213.890625 112.460938 C 213.273438 112.507812 212.195312 112.539062 211.207031 111.847656 C 210.191406 111.140625 209.683594 109.941406 209.523438 110.285156 C 208.539062 112.429688 207.753906 114.621094 204.898438 115.609375 C 202.078125 116.589844 198.980469 115.023438 198.25 112.90625 C 197.292969 110.136719 197.136719 109.410156 196.769531 107.953125 C 196.246094 110.097656 196.066406 115.34375 194.421875 117.222656 C 193.277344 118.527344 190.539062 118.769531 188.863281 116.917969 C 188.152344 116.128906 187.300781 113.285156 188.371094 110.550781 C 189.761719 107.007812 191.96875 106.113281 192.050781 106.246094 C 192.167969 106.441406 190.148438 108.164062 189.890625 111.296875 C 189.515625 115.773438 191.652344 116.53125 192.980469 114.644531 C 193.820312 113.453125 194.242188 109.355469 194.953125 107.492188 C 195.753906 105.410156 196.945312 102.539062 197.867188 103.183594 C 198.378906 103.542969 198.667969 105.96875 199.085938 107.492188 C 199.558594 109.214844 199.886719 111.777344 201.84375 112.589844 C 205.414062 114.070312 209.109375 107.683594 209.109375 107.683594 C 209.109375 107.683594 208.320312 106.949219 208.808594 104.933594 C 209.0625 103.882812 210.460938 101.671875 211.886719 100.835938 C 212.671875 100.375 213.570312 102.601562 215.183594 102.808594 C 215.695312 102.871094 216.28125 102.589844 216.597656 102.179688 C 217.019531 101.636719 217.859375 101.484375 216.558594 88.628906 C 216.492188 87.964844 218.347656 85.894531 219.101562 86.164062 C 219.496094 86.304688 219.125 101.046875 218.953125 101.601562 C 217.863281 105.132812 216.039062 106.023438 214.226562 105.082031 Z M 212.628906 109.296875 C 212.085938 109.199219 211.53125 109.25 211.519531 109.429688 C 211.507812 109.65625 211.914062 110.066406 212.394531 110.339844 C 212.730469 110.53125 213.121094 110.832031 213.347656 110.347656 C 213.539062 109.941406 213.261719 109.410156 212.628906 109.296875 Z M 212.628906 109.296875 " fill-opacity="1" fill-rule="evenodd"/><g clip-path="url(#adb5469697)"><path fill="#ffffff" d="M 163.34375 108.0625 C 163.15625 108.617188 162.839844 109.5625 162.578125 110.273438 C 161.480469 113.285156 160.394531 117.4375 155.972656 118.070312 C 148.496094 119.144531 145.964844 113.695312 146.65625 111.332031 C 146.691406 111.207031 146.765625 114.355469 152.820312 115.351562 C 153.078125 115.394531 153.824219 115.402344 154.003906 115.390625 C 156.789062 115.207031 157.691406 114.632812 159.089844 113 C 160.167969 111.742188 163.46875 108.15625 160.625 105.855469 C 160.515625 105.765625 162.300781 104.195312 162.773438 104.371094 C 162.972656 104.445312 163.503906 104.859375 163.550781 104.898438 C 163.796875 105.117188 164.898438 107.046875 165.109375 107.488281 C 165.472656 107.90625 165.859375 108.285156 166.277344 108.441406 C 167.933594 109.066406 168.40625 107.363281 168.4375 107.238281 C 168.53125 106.835938 167.441406 105.265625 167.671875 104.6875 C 168.023438 103.800781 173.625 104.140625 174.574219 104.636719 C 175.074219 104.894531 173.894531 106.757812 173.871094 107.273438 C 173.867188 107.425781 175.992188 108.480469 177.019531 108.816406 C 178.226562 109.210938 179.867188 108.867188 180.699219 108.421875 C 180.734375 108.496094 181.421875 105.824219 180.171875 87.898438 C 180.09375 86.753906 182.191406 84.808594 182.992188 84.855469 C 183.984375 84.910156 183.242188 107.523438 183.183594 107.675781 C 181.195312 112.96875 178.007812 112.027344 174.902344 111.132812 C 172.421875 110.417969 171.175781 108.640625 171.175781 108.640625 C 171.175781 108.640625 169.710938 111.308594 166.269531 111.058594 C 164.460938 110.929688 163.652344 109.445312 163.34375 108.0625 Z M 172.054688 105.917969 C 172.035156 105.886719 170.320312 105.800781 170.308594 105.859375 C 170.292969 105.957031 171.089844 106.332031 171.328125 106.324219 C 171.570312 106.316406 172.128906 106.023438 172.054688 105.917969 Z M 172.054688 105.917969 " fill-opacity="1" fill-rule="evenodd"/></g><g clip-path="url(#7d663b111d)"><path fill="#ffffff" d="M 187.917969 107.046875 C 187.824219 107.632812 187.832031 110.625 185.707031 110.589844 C 185.738281 110.667969 186.269531 102.773438 185.128906 87.980469 C 185.042969 86.835938 187.207031 84.792969 188.003906 84.839844 C 188.996094 84.894531 187.945312 106.882812 187.917969 107.046875 Z M 187.917969 107.046875 " fill-opacity="1" fill-rule="evenodd"/></g><path fill="#ffffff" d="M 148.84375 110.503906 C 146.589844 110.320312 146.191406 109.398438 145.550781 108.394531 C 145.367188 108.949219 145.046875 109.890625 144.789062 110.605469 C 143.6875 113.617188 139.800781 117.242188 135.417969 118.109375 C 126.976562 119.78125 124.828125 111.554688 125.398438 110.597656 C 125.464844 110.484375 127.300781 115.335938 132.289062 115.179688 C 132.480469 115.175781 132.664062 115.164062 132.847656 115.15625 C 136.511719 115 138.746094 113.476562 140.09375 112.542969 C 142.582031 110.816406 145.679688 108.488281 142.832031 106.1875 C 142.722656 106.097656 144.511719 104.527344 144.980469 104.703125 C 145.179688 104.777344 145.972656 108.023438 148.730469 108.078125 C 151.863281 108.140625 152.453125 105.277344 152.632812 105.5625 C 152.925781 106.03125 152.34375 108.269531 154.386719 108.476562 C 155.179688 108.558594 156.003906 108.410156 156.140625 107.460938 C 156.3125 106.257812 155.28125 105.183594 155.234375 104.902344 C 155.167969 104.515625 156.882812 103.402344 157.050781 103.628906 C 157.210938 103.84375 157.527344 104.941406 157.628906 105.503906 C 157.824219 106.585938 157.859375 107.253906 157.730469 108.152344 C 157.480469 109.859375 155.839844 110.425781 154.832031 110.457031 C 152.363281 110.539062 151.964844 109.679688 151.832031 109.285156 C 151.53125 109.84375 149.898438 110.59375 148.84375 110.503906 Z M 148.84375 110.503906 " fill-opacity="1" fill-rule="evenodd"/><path fill="#ffffff" d="M 226.800781 94.667969 L 220.617188 98.554688 L 220.625 99.546875 L 226.667969 95.800781 Z M 226.800781 94.667969 " fill-opacity="1" fill-rule="evenodd"/><path fill="#ffffff" d="M 209.777344 93.480469 L 203.59375 97.363281 L 203.601562 98.355469 L 209.644531 94.609375 Z M 209.777344 93.480469 " fill-opacity="1" fill-rule="evenodd"/><path fill="#ffffff" d="M 157.738281 110.910156 L 150.710938 112.90625 L 150.441406 113.863281 L 157.292969 111.957031 Z M 157.738281 110.910156 " fill-opacity="1" fill-rule="evenodd"/><path fill="#ffffff" d="M 220.960938 110.476562 L 214.777344 114.363281 L 214.785156 115.355469 L 220.828125 111.605469 Z M 220.960938 110.476562 " fill-opacity="1" fill-rule="evenodd"/><path fill="#ffffff" d="M 214.6875 105.964844 L 215.707031 106.890625 L 214.761719 107.886719 L 213.742188 106.960938 Z M 214.6875 105.964844 " fill-opacity="1" fill-rule="evenodd"/><path fill="#ffffff" d="M 196.582031 98.097656 L 197.597656 99.023438 L 196.652344 100.023438 L 195.632812 99.097656 Z M 196.582031 98.097656 " fill-opacity="1" fill-rule="evenodd"/><path fill="#ffffff" d="M 216.800781 105.886719 L 217.839844 106.792969 L 216.910156 107.808594 L 215.875 106.902344 Z M 216.800781 105.886719 " fill-opacity="1" fill-rule="evenodd"/><path fill="#ffffff" d="M 198.695312 98.019531 L 199.730469 98.925781 L 198.804688 99.941406 L 197.765625 99.039062 Z M 198.695312 98.019531 " fill-opacity="1" fill-rule="evenodd"/><path fill="#ffffff" d="M 197.070312 92.691406 C 196.667969 92.648438 196.445312 92.386719 196.335938 92.128906 C 196.230469 91.886719 196.222656 91.578125 196.335938 91.289062 C 196.542969 90.757812 197.152344 90.253906 197.96875 90.675781 C 198.382812 90.890625 198.601562 91.265625 198.671875 91.707031 C 198.75 92.1875 198.613281 92.761719 198.410156 93.136719 C 197.871094 94.136719 196.601562 94.59375 195.699219 94.667969 C 194.453125 94.769531 193.125 94.148438 193.101562 94.015625 C 193.097656 93.984375 194.859375 94.289062 195.296875 94.25 C 195.957031 94.1875 196.316406 93.996094 196.78125 93.40625 C 196.976562 93.15625 196.996094 92.933594 197.070312 92.691406 Z M 197.449219 91.347656 C 197.304688 91.347656 197.1875 91.46875 197.1875 91.621094 C 197.1875 91.769531 197.304688 91.894531 197.449219 91.894531 C 197.59375 91.894531 197.710938 91.769531 197.710938 91.621094 C 197.710938 91.46875 197.59375 91.347656 197.449219 91.347656 Z M 197.449219 91.347656 " fill-opacity="1" fill-rule="evenodd"/><path fill="#ffffff" d="M 172.121094 97.355469 C 171.71875 97.316406 171.496094 97.050781 171.386719 96.796875 C 171.28125 96.554688 171.273438 96.246094 171.386719 95.953125 C 171.59375 95.425781 172.203125 94.917969 173.019531 95.34375 C 173.433594 95.558594 173.65625 95.933594 173.722656 96.371094 C 173.800781 96.855469 173.664062 97.429688 173.460938 97.804688 C 172.921875 98.804688 171.652344 99.261719 170.75 99.335938 C 169.503906 99.433594 168.175781 98.816406 168.152344 98.679688 C 168.148438 98.648438 169.910156 98.957031 170.347656 98.914062 C 171.007812 98.851562 171.367188 98.660156 171.832031 98.074219 C 172.027344 97.824219 172.046875 97.601562 172.121094 97.355469 Z M 172.5 96.015625 C 172.355469 96.015625 172.238281 96.136719 172.238281 96.285156 C 172.238281 96.4375 172.355469 96.558594 172.5 96.558594 C 172.644531 96.558594 172.761719 96.4375 172.761719 96.285156 C 172.761719 96.136719 172.644531 96.015625 172.5 96.015625 Z M 172.5 96.015625 " fill-opacity="1" fill-rule="evenodd"/><path fill="#ffffff" d="M 159.976562 97.398438 C 160.097656 97.277344 160.058594 97.546875 161.050781 97.96875 C 162.03125 98.386719 161.894531 98.828125 161.871094 99.195312 C 161.855469 99.496094 161.722656 99.746094 161.570312 99.953125 C 161.234375 100.414062 160.675781 100.875 159.890625 100.480469 C 158.792969 99.929688 159.804688 97.566406 159.976562 97.398438 Z M 160.074219 98.464844 C 159.964844 98.757812 159.988281 99.007812 159.988281 99.03125 C 159.988281 99.367188 160.058594 99.558594 160.3125 99.632812 C 160.65625 99.738281 160.894531 99.699219 161.132812 99.585938 C 161.253906 99.53125 161.277344 99.398438 161.265625 99.324219 C 161.226562 99.050781 160.460938 98.753906 160.074219 98.464844 Z M 160.074219 98.464844 " fill-opacity="1" fill-rule="evenodd"/></svg>